<?xml version="1.0" standalone="no"?>
<!DOCTYPE svg PUBLIC "-//W3C//DTD SVG 20010904//EN"
 "http://www.w3.org/TR/2001/REC-SVG-20010904/DTD/svg10.dtd">
<svg version="1.0" xmlns="http://www.w3.org/2000/svg"
 width="900.000000pt" height="606.000000pt" viewBox="0 0 900.000000 606.000000"
 preserveAspectRatio="xMidYMid meet">
<metadata>
Created by potrace 1.10, written by Peter Selinger 2001-2011
</metadata>
<g transform="translate(0.000000,606.000000) scale(0.100000,-0.100000)"
fill="#0000ff" stroke="none">
<path d="M3790 5323 c-28 -10 -79 -66 -85 -92 -6 -28 13 -138 40 -236 9 -33
20 -76 24 -95 16 -68 81 -205 153 -325 46 -77 152 -205 169 -205 5 0 9 54 9
120 0 115 1 123 32 185 17 36 46 83 65 105 42 48 151 120 219 143 66 22 197
23 250 1 150 -60 216 -115 273 -229 106 -209 39 -449 -163 -582 -46 -31 -47
-33 -22 -33 44 0 129 46 189 103 106 100 147 198 147 348 0 171 -63 291 -213
404 -25 19 -26 25 -31 140 -7 140 -24 190 -83 230 l-38 25 -460 -1 c-253 0
-467 -3 -475 -6z"/>
<path d="M3505 5061 c-3 -11 0 -45 8 -74 8 -28 17 -78 20 -109 3 -32 10 -72
16 -90 5 -18 14 -62 20 -98 5 -36 17 -99 26 -140 9 -41 20 -99 26 -129 5 -30
12 -58 15 -62 5 -8 19 -81 44 -223 9 -49 8 -62 -4 -74 -12 -13 -98 -15 -594
-16 l-579 -1 -34 -26 c-19 -15 -44 -47 -57 -71 -22 -45 -22 -49 -22 -478 0
-429 0 -433 23 -478 13 -26 38 -56 61 -71 l40 -26 598 -3 598 -3 5 -22 c7 -25
-6 -101 -30 -192 -9 -33 -20 -78 -26 -100 -12 -52 -98 -321 -115 -362 -8 -17
-14 -33 -14 -36 0 -7 -57 -135 -76 -169 -7 -14 -14 -33 -14 -41 0 -8 -7 -20
-15 -27 -8 -7 -15 -19 -15 -28 0 -8 -7 -23 -16 -33 -9 -10 -13 -23 -9 -29 9
-15 25 -3 25 20 0 10 3 20 8 22 28 12 236 416 257 501 4 15 11 30 16 33 5 3 9
12 9 21 0 8 7 29 15 46 8 18 19 50 24 72 5 22 17 65 26 95 49 159 79 322 104
555 22 201 11 396 -39 713 -11 67 -23 125 -66 297 -8 33 -19 80 -24 105 -9 44
-34 131 -50 180 -5 14 -18 59 -30 100 -11 41 -25 82 -29 90 -5 9 -12 31 -16
50 -4 19 -11 41 -16 50 -4 8 -15 42 -24 75 -9 33 -23 78 -31 100 -8 23 -14 50
-14 60 0 11 -4 26 -9 34 -7 11 -10 9 -16 -8z"/>
<path d="M5940 4021 c-8 -5 -41 -12 -72 -15 -32 -4 -60 -11 -63 -15 -2 -5 -27
-11 -54 -15 -28 -4 -53 -11 -56 -16 -3 -6 -15 -10 -27 -10 -11 0 -34 -6 -51
-13 -18 -8 -57 -22 -87 -31 -127 -41 -406 -182 -531 -268 -164 -113 -174 -120
-274 -204 -131 -110 -353 -340 -378 -391 -5 -13 -13 -23 -17 -23 -4 0 -26 -28
-49 -62 -23 -35 -64 -94 -91 -133 -27 -38 -61 -92 -75 -120 -15 -27 -36 -66
-47 -85 -29 -49 -138 -266 -138 -274 0 -4 -8 -26 -18 -49 -31 -71 -49 -118
-82 -212 -18 -49 -36 -98 -41 -108 -6 -10 -14 -37 -19 -60 -5 -23 -16 -69 -25
-102 -39 -143 -46 -171 -48 -185 -2 -13 68 -15 567 -18 442 -2 571 1 577 10 4
7 8 291 7 631 0 340 3 621 7 625 4 4 265 9 580 12 l573 5 44 30 c25 18 52 49
65 75 23 44 23 50 23 468 0 402 -1 425 -20 467 -27 59 -75 95 -126 95 -21 0
-46 -4 -54 -9z"/>
<path d="M7060 1124 c-83 -32 -145 -84 -177 -151 -16 -34 -18 -67 -18 -333 0
-269 2 -299 19 -334 98 -206 358 -212 468 -11 19 35 22 60 26 193 4 124 2 152
-9 152 -124 3 -219 1 -227 -4 -8 -5 -9 -61 -3 -128 1 -5 18 -8 39 -8 68 0 89
-48 56 -130 -34 -86 -124 -107 -192 -46 l-37 34 -3 263 c-3 278 -1 298 44 340
33 31 112 33 144 4 27 -24 60 -97 60 -131 0 -13 5 -24 10 -25 6 0 28 -1 50 -1
79 0 74 -5 66 73 -10 107 -57 180 -146 224 -36 17 -143 29 -170 19z"/>
<path d="M586 1008 c-10 -51 -22 -120 -27 -153 -4 -33 -15 -100 -24 -150 -10
-49 -23 -124 -30 -165 -7 -41 -21 -113 -30 -160 -30 -154 -34 -175 -34 -203
l-1 -28 62 3 63 3 14 53 14 52 103 0 104 0 6 -27 c17 -78 21 -83 87 -83 l60 0
-7 73 c-4 39 -11 86 -16 102 -5 17 -13 66 -19 110 -5 44 -16 116 -24 160 -8
44 -23 123 -32 175 -20 115 -41 231 -52 285 l-8 40 -95 3 -96 3 -18 -93z m148
-261 c9 -77 27 -222 34 -272 13 -94 11 -96 -71 -93 l-72 3 -3 49 c-2 26 2 62
8 80 6 17 15 65 20 106 10 78 27 174 36 200 9 25 42 -25 48 -73z"/>
<path d="M1085 1088 c-10 -28 2 -534 13 -568 9 -25 27 -45 62 -68 28 -17 51
-31 52 -30 1 2 4 100 7 218 l6 215 28 3 c17 2 27 -1 27 -9 0 -17 93 -159 104
-159 14 0 44 38 97 123 19 31 36 47 49 47 20 0 20 -7 20 -339 0 -187 3 -346 6
-355 7 -17 44 -22 44 -6 0 5 -5 20 -11 34 -7 14 -9 40 -5 61 6 30 11 36 29 33
19 -3 23 -11 28 -62 6 -54 22 -81 41 -70 4 3 8 217 8 475 l0 470 -82 -3 -82
-3 -62 -85 c-33 -47 -67 -86 -75 -88 -8 -1 -25 15 -39 35 -13 21 -42 62 -63
91 l-38 52 -80 0 c-54 0 -81 -4 -84 -12z"/>
<path d="M1855 1088 c-3 -7 -4 -220 -3 -473 l3 -460 125 -3 c171 -4 245 19
318 98 53 58 66 95 66 186 0 75 -3 84 -37 141 -39 64 -40 80 -5 115 27 27 58
104 58 144 0 93 -66 196 -155 243 -36 19 -56 21 -203 21 -121 0 -164 -3 -167
-12z m287 -128 c52 -15 98 -73 98 -123 0 -31 -7 -45 -45 -82 -44 -45 -45 -45
-114 -45 -87 0 -91 5 -91 134 0 73 4 98 16 110 18 18 81 21 136 6z m43 -420
c50 -47 55 -147 11 -195 -48 -52 -175 -75 -196 -36 -15 29 -13 234 3 250 8 9
33 12 85 8 58 -3 77 -9 97 -27z"/>
<path d="M2490 723 l0 -378 28 -55 c19 -38 45 -68 86 -100 l58 -45 87 0 c82 0
88 2 143 37 48 31 62 47 88 102 l30 65 0 376 0 376 -67 -3 -68 -3 -3 -371 -2
-372 -40 -36 c-32 -29 -48 -36 -82 -36 -35 0 -47 6 -79 40 l-39 41 -2 367 -3
367 -67 3 -68 3 0 -378z"/>
<path d="M3165 1088 c-3 -7 -4 -220 -3 -473 l3 -460 210 0 210 0 3 68 3 67
-129 0 c-112 0 -131 2 -145 18 -15 16 -17 63 -19 403 l-3 384 -63 3 c-44 2
-64 -1 -67 -10z"/>
<path d="M3845 1088 c-6 -18 -23 -107 -39 -208 -8 -47 -17 -92 -20 -100 -3 -8
-10 -49 -16 -90 -14 -100 -55 -336 -80 -450 -19 -90 -18 -91 52 -88 60 3 63 4
72 33 23 80 15 75 125 75 l100 0 16 -55 16 -55 63 0 64 0 -5 42 c-2 24 -9 66
-14 93 -6 28 -15 82 -20 120 -5 39 -12 77 -15 85 -7 17 -28 134 -50 280 -16
113 -39 241 -51 290 l-9 35 -92 3 c-68 2 -93 -1 -97 -10z m114 -300 c7 -24 19
-90 27 -148 41 -285 46 -262 -50 -258 l-71 3 -3 44 c-2 23 2 57 8 75 6 17 15
67 20 111 22 207 44 263 69 173z"/>
<path d="M4325 1088 c-3 -7 -4 -213 -3 -458 l3 -445 51 -3 c85 -5 84 -7 84
249 0 169 3 219 13 218 6 0 53 -84 103 -187 123 -251 124 -253 124 -267 0 -26
37 -46 81 -43 l44 3 0 470 0 470 -60 0 -60 0 -3 -250 c-1 -137 -5 -257 -8
-265 -4 -11 -11 -7 -29 15 -13 17 -24 36 -25 43 0 8 -7 26 -15 40 -8 15 -24
50 -35 77 -12 28 -25 59 -30 70 -5 11 -18 43 -30 70 -11 28 -25 58 -30 67 -6
10 -10 23 -10 30 0 7 -10 33 -23 58 -22 45 -22 45 -80 48 -40 2 -59 -1 -62
-10z"/>
<path d="M4934 1086 c-3 -7 -4 -38 -2 -67 l3 -54 90 -5 90 -5 5 -400 5 -400
65 0 65 0 5 400 5 400 87 3 c99 3 102 6 96 93 l-3 44 -253 3 c-208 2 -253 0
-258 -12z"/>
<path d="M5605 1063 c-3 -21 -8 -47 -11 -58 -3 -11 -11 -58 -20 -105 -8 -47
-21 -119 -28 -160 -29 -151 -46 -247 -61 -330 -8 -47 -19 -105 -24 -130 -5
-25 -11 -64 -15 -87 l-6 -43 64 0 c72 0 81 6 91 68 l7 42 103 0 104 0 6 -37
c4 -21 7 -45 8 -53 2 -11 18 -16 61 -18 32 -2 64 -1 71 2 14 5 11 25 -60 426
-7 41 -20 116 -28 165 -8 50 -18 97 -21 105 -3 8 -10 47 -15 85 -6 39 -14 90
-18 115 l-8 45 -97 3 -97 3 -6 -38z m125 -296 c18 -76 41 -231 47 -314 l5 -73
-75 0 c-88 0 -91 5 -76 98 6 31 16 95 23 142 36 225 52 256 76 147z"/>
<path d="M6426 1092 c-6 -10 -11 -35 -71 -387 -8 -49 -22 -126 -30 -170 -8
-44 -20 -109 -26 -145 -6 -36 -17 -90 -25 -120 -8 -30 -14 -69 -14 -87 l0 -33
59 0 c67 0 76 7 86 68 l7 42 103 0 104 0 16 -55 16 -55 64 0 65 0 -6 48 c-4
26 -11 67 -16 92 -5 25 -16 88 -23 140 -8 52 -21 136 -30 185 -9 50 -23 126
-30 170 -30 176 -44 251 -53 280 l-8 30 -91 3 c-50 1 -94 -1 -97 -6z m117
-304 c9 -24 20 -88 26 -143 5 -55 14 -128 19 -163 15 -99 13 -103 -72 -100
l-71 3 -3 35 c-2 19 2 52 8 74 6 21 15 68 20 105 10 79 29 201 35 219 8 24 23
12 38 -30z"/>
<path d="M7520 1088 c0 -7 -2 -219 -4 -471 -4 -405 -2 -459 11 -464 9 -4 19 1
25 10 11 21 36 22 59 1 10 -9 25 -14 33 -11 13 5 16 39 18 209 l3 203 110 0
110 0 3 -200 2 -200 35 40 c35 38 36 39 75 28 l40 -10 -2 436 -3 436 -70 0
-70 0 -6 -190 c-3 -104 -6 -191 -7 -192 -1 -2 -49 -3 -106 -3 -85 0 -105 3
-110 16 -3 9 -6 96 -6 195 l0 179 -70 0 c-49 0 -70 -4 -70 -12z"/>
</g>
</svg>
